<svg width="128" height="128" viewBox="0 0 128 128" fill="none" xmlns="http://www.w3.org/2000/svg">
<circle cx="64" cy="64" r="64" fill="#2A9D8F"/>
<path d="M57.4167 94.6667C54.2917 96.1667 50.75 97 47 97C33.2083 97 22 85.7917 22 72V51.1667C22 37.375 33.2083 26.1667 47 26.1667L57.4167 45.25C47.4167 50.375 40.75 59.5 40.75 69.9167C40.75 80.3333 47.4583 89.5 57.4167 94.6667ZM80.3333 92.5833V97H84.5C86.7917 97 88.6667 98.875 88.6667 101.167C88.6667 103.458 86.7917 105.333 84.5 105.333H72C69.7083 105.333 67.8333 103.458 67.8333 101.167C67.8333 98.875 69.7083 97 72 97V92.5833C57.875 91 47 81.4583 47 69.9167C47 57.25 60.0417 47 76.1667 47H78.5C75.5 41.2917 72 35.4583 72 30.3333C72 25.75 75.75 22 80.3333 22C89.5417 22 97 29.4583 97 38.6667H88.6667C88.6667 38.6667 105.333 51.1667 105.333 69.9167C105.333 81.4583 94.4583 91 80.3333 92.5833ZM80.3333 30.3333C80.3333 32.625 82.2083 34.5 84.5 34.5C86.7917 34.5 88.6667 32.625 88.6667 30.3333C88.6667 28.0417 86.7917 26.1667 84.5 26.1667C82.2083 26.1667 80.3333 28.0417 80.3333 30.3333ZM84.5 63.6667C84.5 61.4565 83.622 59.3369 82.0592 57.7741C80.4964 56.2113 78.3768 55.3333 76.1667 55.3333C66.9583 55.3333 59.5 62.7917 59.5 72H76.1667C80.7917 72 84.5 68.2917 84.5 63.6667Z" fill="#F4A261"/>
</svg>
